<svg width="126" height="168" xmlns="http://www.w3.org/2000/svg" xmlns:xlink="http://www.w3.org/1999/xlink"><defs><path id="a" d="M.406.776l3.041 3.45.322-3.733z"/><path id="c" d="M.406.777l3.042 3.448L3.77.493z"/><path d="M.561.479l1.924 21.548 16.325.357C16.806 16.726 16.903 8.488 16.838.446L.561.48z" id="e"/><path d="M4.462.642S4.07 8.292.2 16.452l3.743 2.967 14.605-.232S21.368 8.96 21.244.375L4.462.642z" id="g"/><path d="M4.463.642S4.07 8.292.2 16.452l3.743 2.967 14.605-.232S21.368 8.958 21.245.375L4.463.642z" id="i"/><path d="M.426.762L13.743.584.426.762z" id="k"/><path d="M.426.762L13.743.584.426.762z" id="m"/><path id="o" d="M.196.805l3.708 2.92L3.857 0z"/><path id="q" d="M.197.805l3.708 2.92L3.858.002z"/></defs><g fill="none" fill-rule="evenodd"><path d="M123.565 59.188c7.238 41.05-8.47 62.998-36.38 72.258-4.593 1.524-9.517 2.704-14.724 3.569-43.3 7.195-65.92-10.332-70.65-35.009C-6.078 58.86 23.815 9.562 69.343 1.534c27.693-4.883 48.112 23.005 54.222 57.654z" stroke="#1F41C1" stroke-width=".7"/><path fill="#FFF" d="M36 129h45v17H36z"/><path d="M43.796 30.603a.562.562 0 01-.563-.57.576.576 0 01.576-.57c.315 0 .567.256.564.57a.578.578 0 01-.577.57zm-2.849-.003a.563.563 0 01-.563-.571.577.577 0 01.576-.569c.315 0 .567.256.564.57a.578.578 0 01-.577.57zm-2.849-.003a.564.564 0 01-.564-.571.578.578 0 01.577-.57c.316 0 .568.257.563.572a.577.577 0 01-.576.569zm-2.85-.004a.562.562 0 01-.562-.57.577.577 0 01.577-.57c.314 0 .567.256.563.571a.578.578 0 01-.577.569zm-2.847-.004a.562.562 0 01-.564-.57.577.577 0 01.576-.569c.315 0 .568.256.564.57a.577.577 0 01-.576.57zm-1.753-2.375l-.193 16.516 2.824 3.228 12.49.015.23-19.741-15.351-.018z" stroke="#1F41C1" stroke-width=".9" stroke-linecap="round" stroke-linejoin="round"/><path fill="#1F41C1" d="M30.406 44.679l3.364-.285-.323 3.733"/><g transform="translate(30 43.902)"><mask id="b" fill="#fff"><use xlink:href="#a"/></mask><path stroke="#1F41C1" stroke-width=".9" stroke-linecap="round" stroke-linejoin="round" mask="url(#b)" d="M2.23-4.428l6.625 6.625-5.408 5.408L-3.177.98z"/></g><g transform="translate(30 43.902)"><mask id="d" fill="#fff"><use xlink:href="#c"/></mask><path stroke="#1F41C1" stroke-width=".9" stroke-linecap="round" stroke-linejoin="round" mask="url(#d)" d="M-3040.95 2440.784l486.703 486.703L333.19 40.051l-486.703-486.703z"/></g><path d="M71.61 50.086l-16.325-.358-1.924-21.547 16.278-.033c.063 8.042-.033 16.28 1.97 21.938" fill="#1F41C1"/><g transform="translate(52.8 27.702)"><mask id="f" fill="#fff"><use xlink:href="#e"/></mask><path stroke="#1F41C1" stroke-width=".9" stroke-linecap="round" stroke-linejoin="round" mask="url(#f)" d="M-123.85 3634.35l634.703-52.151L201.462-183.27l-634.704 52.151z"/></g><g transform="translate(48.6 27.702)"><mask id="h" fill="#fff"><use xlink:href="#g"/></mask><path stroke="#1F41C1" stroke-width=".9" stroke-linecap="round" stroke-linejoin="round" mask="url(#h)" d="M-3.446-.927l26.623-2.188 1.97 23.978-26.623 2.188z"/></g><g transform="translate(48.6 27.702)"><mask id="j" fill="#fff"><use xlink:href="#i"/></mask><path stroke="#1F41C1" stroke-width=".9" stroke-linecap="round" stroke-linejoin="round" mask="url(#j)" d="M-119.65 3634.35l634.703-52.151L205.662-183.27l-634.704 52.151z"/></g><path d="M53.062 28.344s-.391 7.65-4.261 15.81l3.742 2.967 14.605-.233s2.82-10.228 2.697-18.811l-16.783.267z" stroke="#1F41C1" stroke-width=".9" stroke-linecap="round" stroke-linejoin="round"/><path d="M53.062 28.344s-.391 7.65-4.261 15.81l3.742 2.967 14.605-.233s2.82-10.228 2.697-18.811l-16.783.267z" fill="#FFF"/><path d="M53.062 28.344s-.391 7.65-4.261 15.81l3.742 2.967 14.605-.233s2.82-10.228 2.697-18.811l-16.783.267z" stroke="#1F41C1" stroke-width=".9" stroke-linecap="round" stroke-linejoin="round"/><g transform="translate(52.8 36.702)"><mask id="l" fill="#fff"><use xlink:href="#k"/></mask><path stroke="#1F41C1" stroke-width=".9" stroke-linecap="round" stroke-linejoin="round" mask="url(#l)" d="M-2.87-1.314l17.558-1.443.461 5.612-17.558 1.443z"/></g><g transform="translate(52.8 36.702)"><mask id="n" fill="#fff"><use xlink:href="#m"/></mask><path stroke="#1F41C1" stroke-width=".9" stroke-linecap="round" stroke-linejoin="round" mask="url(#n)" d="M-2.165 8.17l17.631-1.448-1.16-14.104-17.63 1.448z"/></g><path stroke="#1F41C1" stroke-width=".9" stroke-linecap="round" stroke-linejoin="round" d="M53.226 37.464l13.317-.178m-14.098 1.905l10.854-.164m-11.718 1.891l14.337-.198"/><path fill="#1F41C1" d="M48.797 44.106l3.662-.803.046 3.724"/><g transform="translate(48.6 43.302)"><mask id="p" fill="#fff"><use xlink:href="#o"/></mask><path stroke="#1F41C1" stroke-width=".9" stroke-linecap="round" stroke-linejoin="round" mask="url(#p)" d="M-2.229-1.717l8.11-.667.667 8.11-8.11.667z"/></g><g transform="translate(48.6 43.302)"><mask id="r" fill="#fff"><use xlink:href="#q"/></mask><path stroke="#1F41C1" stroke-width=".9" stroke-linecap="round" stroke-linejoin="round" mask="url(#r)" d="M-119.65 3618.75l634.703-52.151L205.662-198.87l-634.704 52.151z"/></g><path d="M61.42 35.112l-4.311-.02c.87-2.06.647-4.471.647-4.471l4.312.02c-.061 1.396-.09 2.823-.648 4.47z" stroke="#1F41C1" stroke-width=".9" stroke-linecap="round" stroke-linejoin="round"/><path stroke="#1F41C1" stroke-width=".9" stroke-linecap="round" stroke-linejoin="round" d="M59.44 32.282l.215 1.862 3.454-2.591"/><path d="M67.753 66.88l2.95.948a9.512 9.512 0 016.574 8.339l.746 9.884-2.51 5.02.912 3.88-.457 1.141-20.667 4.718-2.84-8.14-4.564-4.109-2.055-2.51 3.268-10.834a9.583 9.583 0 017.22-6.614l3.89-.81s.688 2.196 2.055 2.282c3.652.228 4.565-2.51 5.478-3.195" fill="#1F41C1"/><path d="M60.188 56.503s.454 6.212.7 6.95c.246.737 1.23 1.966 1.966 1.966.738 0 2.213-.738 2.704-1.23.492-.49 2.704-3.932 2.704-3.932l-1.475-2.212m-5.616 11.672s.454 6.212.7 6.95c.246.737 1.23 1.966 1.967 1.966.737 0 2.212-.737 2.703-1.229.492-.492 2.704-3.933 2.704-3.933l-1.474-2.212" stroke="#1F41C1" stroke-width=".9" stroke-linecap="round" stroke-linejoin="round"/><path fill="#FFF" d="M77.608 86.77l-.041 1.335-.78 1.586-2.07 1.223-4.226 1.527-13.693.457-3.195-1.598-1.826-4.565 22.594-.228z"/><path stroke="#1F41C1" stroke-width=".9" stroke-linecap="round" stroke-linejoin="round" d="M77.608 86.77l-.041 1.335-.78 1.586-2.07 1.223-4.226 1.527-13.693.457-3.195-1.598-1.826-4.565 22.594-.228z"/><path d="M47.897 88.105l1.598-2.054 1.597-.457 1.37-.228 5.02.913h11.64l1.881-.807a8.502 8.502 0 012.74-.664l1.769-.127 1.142.457v.456l-2.49.533 2.25.679a3.56 3.56 0 011.837 1.299s.64.673.078.605c-.643-.079-2.518-.902-2.853-.94l-1.105-.122 1.174.746a5.227 5.227 0 011.528 1.482c.46.682.613 1.14-.42.739l-.913-.685-.454-.302a3.626 3.626 0 00-2.015-.61h-.04l.455.684 1.142 1.598.228.685h-.685l-.456-.685-1.598-1.142-1.37-.456-1.825-.456-5.934.912-4.474.896c-.82.163-1.65.288-2.481.37l-.213.022a25.73 25.73 0 01-6.188-.13l-.11-.016-1.369-.457-.456-2.738z" fill="#FFF"/><path d="M47.897 88.105l1.598-2.054 1.597-.457 1.37-.228 5.02.913h11.64l1.881-.807a8.502 8.502 0 012.74-.664l1.769-.127 1.142.457v.456l-2.49.533 2.25.679a3.56 3.56 0 011.837 1.299s.64.673.078.605c-.643-.079-2.518-.902-2.853-.94l-1.105-.122 1.174.746a5.227 5.227 0 011.528 1.482c.46.682.613 1.14-.42.739l-.913-.685-.454-.302a3.626 3.626 0 00-2.015-.61h-.04l.455.684 1.142 1.598.228.685h-.685l-.456-.685-1.598-1.142-1.37-.456-1.825-.456-5.934.912-4.474.896c-.82.163-1.65.288-2.481.37l-.213.022a25.73 25.73 0 01-6.188-.13l-.11-.016-1.369-.457-.456-2.738z" stroke="#1F41C1" stroke-width=".9" stroke-linecap="round" stroke-linejoin="round"/><path d="M60.25 57.21c.689 1.61 2.642 1.594 5.15 1.513a2.105 2.105 0 011.775 3.33l-1.071 1.5.293 5.073 1.491-.195 3.484-.39s.293-4.684-.292-8.49c-.586-3.804-3.07-8.454-6.038-8.682a6.507 6.507 0 00-.562-.019c-2.897.021-5.38 2.095-6.189 4.876-.762 2.624-.968 3.73-.979 6.098-.004.94-.575 17.339-.575 17.339l5.269-.293-.878-14.635c-.643-.84-.829-2.75-.878-4.976V57.21z" fill="#1F41C1"/><path d="M60.631 63.676l.134 2.006s.072 3.658.085 3.122c.013-.537 3.093-3.798 3.093-3.798-.56.163-1.09.185-1.58 0" fill="#1F41C1"/><path d="M80.009 27.439l-1.604-.008c-2.211-.01-4.012 1.628-4.02 3.657-.01 2.03 1.776 3.683 3.989 3.693l9.231.042a8.826 8.826 0 014.439 1.22l1.281.756.004-.809c.002-.585.392-1.116.963-1.244 1.73-.388 2.974-1.83 2.981-3.554.009-2.03-1.777-3.683-3.99-3.693l-13.274-.06zm5.925 10.928l1.603-.007c2.211-.01 4.012 1.627 4.021 3.657.009 2.03-1.777 3.683-3.99 3.692l-2.986.042a8.827 8.827 0 00-4.438 1.221l-1.281.755-.004-.808c-.003-.585-.392-1.117-.963-1.244-1.731-.388-2.975-1.83-2.982-3.555-.009-2.03 1.778-3.683 3.99-3.693l7.03-.06z" stroke="#1F41C1" stroke-width=".9" stroke-linecap="round" stroke-linejoin="round"/><path stroke="#1F41C1" stroke-width=".929" d="M46.407 158.75l.188 3.413.873-.15v-3.13"/><path d="M47.807 162.012l.399 3.854h.265v1.596h-7.044l.266-1.861s1.329 0 1.727-.399c.399-.399 2.792-3.19 2.792-3.19h1.595zm18.713-1.61l-.133 5.317h-.266v1.329h6.911l-1.063-1.994-.664.133-3.456-4.918" stroke="#1F41C1" stroke-width=".929"/><path fill="#FFF" d="M75.94 95.948l2.084 10.648-5.324 25.231-.463 13.426-3.241 14.815-2.315 1.388-.926-2.083v-26.62l-1.852-19.444-8.796 23.61-1.388 8.566-4.861 15.045-1.621.926-2.083-.926 2.083-28.934 3.704-19.907 3.24-13.89z"/><path stroke="#1F41C1" stroke-width=".929" d="M75.94 95.948l2.084 10.648-5.324 25.231-.463 13.426-3.241 14.815-2.315 1.388-.926-2.083v-26.62l-1.852-19.444-8.796 23.61-1.388 8.566-4.861 15.045-1.621.926-2.083-.926 2.083-28.934 3.704-19.907 3.24-13.89z"/><path stroke="#1F41C1" stroke-width=".9" stroke-linecap="round" stroke-linejoin="round" d="M32.206 34.031h10.2m-10.2 2.4h4.2m-4.2 2.4h7.2"/></g></svg>