<svg width="199" height="160" xmlns="http://www.w3.org/2000/svg" xmlns:xlink="http://www.w3.org/1999/xlink"><defs><path d="M5.236.22S2.702 3.247 2.28 3.678C1.858 4.11.451 4.11.451 4.11l-.28 2.02h7.455V4.4h-.28L6.924.219H5.236z" id="a"/><path id="c" d="M.715.58L.573 6.43H.286v1.463H7.74L6.595 5.698l-.718.147L2.15.432z"/><path d="M.177.5c0 .544.602 1.087.602 1.087l.903.541.905.271.903.27h2.411v-.812l-.905-.27-.601-.273-.905.273h-.602l-1.506-.543L.779.5S.511.26.334.26C.244.26.177.32.177.5z" id="e"/><path id="g" d="M8.072.185L6.28 7.438.403 50.516l2.3.388L9.35 27.896l6.048-16.666-.042-.297 1.278-3.107-1.236 3.404 1.236 8.638.254 28.876h2.3l3.194-25.121.128-21.625V.185z"/><path d="M1.484 6.497L.068 7.26c.628.65 3.044 1.312 4.167 1.312 1.127 0 1.502-1.168 1.502-1.168l.167-1.265L3.062.006c0 2.727-1.578 6.49-1.578 6.49z" id="i"/><path d="M.056 3.991c.268.314 1.222 2.38 1.585 2.936.363.557 2.798 1.698 3.09 1.722.294.027 1.055-.218 1.148-.309.355-.35.617-2.34.793-3.665.1-.764.079-1.712.045-2.378A4.726 4.726 0 006.379.774L.019.382l.037 3.61z" id="k"/><path d="M1.233.757c-.983.53-.78 1.388-.78 1.388s-.07.161-.184.206c-.114.048.165 2.388.165 2.388s.49-.377.72-.47c.227-.093.84.69.84.69l.503-.953s.774.628 1.98.677c1.21.052 2.766-1.364 2.766-1.364s2.236-.375-.45-1.845C5.277.646 4.014.354 3.024.354c-.762 0-1.364.174-1.791.403z" id="m"/><path d="M.087.256c-.314.301.396 1.675.396 1.675l.473-.788S.518.208.201.207c-.04 0-.08.015-.114.05z" id="o"/><path d="M.25 8.442l5.163 10.285 1.218 2.67 1.626-.809.545.54c.26.262.709.093.73-.275l.066-1.076-1.222-1.62-1.218-.809L4.72 8.442l4.064-5.67L2.687.344.249 8.442z" id="q"/><path d="M4.102 3.144L.396 9.76l4.965 3.187.497 11.47c10.138 3.588 14.5 0 14.5 0l.88-12.759 3.825-2.184-5.731-6.733-4.38-1.765-.239-.097-5.39-.531-5.221 2.797z" id="s"/><path d="M.246 5.383s1.325 1.16 1.022 2.344l2.81-2.604S2.761 2.9 2.761 1.854c0-1.045-.24-1.568-.24-1.568L.246 5.383z" id="u"/><path id="w" d="M.446.497L3.53 5.992l1.247-2.2L2.412.352z"/><path id="y" d="M.003 5.703l1.594.126.163-.72.915-4.03L1.107.192z"/><path id="A" d="M.292 10.218l3.964 9.69 11.398 17.664 2.478-1.35-7.557-19.256L6.86.036z"/><path id="C" d="M8.806.435L3.29 21.401.293 47.207l2.758.496 9.232-25.309 6.954-17.243L17.918.187z"/><path id="E" d="M2.286 1.1l-.671 5.678L.287 8.245V9.1h3.14L7.05 2.254 3.426.176z"/><path d="M2.867 4.454v1.372L.404 12.435l1.478 11.474 5.639.443 3.58-1.228.668-13.998a7.586 7.586 0 00-1.236-4.439L7.67.34 2.867 4.454z" id="G"/><path d="M2.796 7.885c3.234-.783 2.995-6.01 2.995-6.01L.163.307c.24 5.88 2.633 7.578 2.633 7.578z" id="I"/><path d="M.496.66c.358 0 .358-.538 0-.538-.359 0-.358.538 0 .538z" id="K"/><path d="M2.171 1.071C1.033 1.843.272 3.186.131 4.605c-.04.41-.009.882.291 1.15.19.168.45.216.694.26.369.062.754.127 1.114.018.43-.131.806-.504 1.253-.476.501.03.437 4.24.765 5.386.088.302.213.641.496.746.12.045.255.038.382.025.947-.094 4.061-1.812 4.796-2.448a.626.626 0 00.169-.197c.05-.099.05-.216.047-.329-.025-1.032-.239-2.049-.52-3.036-.295-1.042-.669-2.068-1.243-2.97-.574-.9-1.362-1.675-2.32-2.078A3.97 3.97 0 004.522.35c-.827 0-1.655.247-2.35.72z" id="M"/><path d="M7.337.19S2.393 3.077 2.02 3.492c-.373.412-1.62.412-1.62.412L.15 5.83h9.305V4.178l.268-.058L9.348.13l-2.01.06z" id="O"/><path d="M2.165.822l.05.305-.21-.28s-.504-.08-.454.227c.053.308-.167 1.915-.167 1.915l.097 1.559-.082.487-.442-1.664S.777 2.297.459 2.346c-.317.05-.113 1.279-.113 1.279l.283 1.687.175 2.02.156.92c.05.307-.083.484.286.743.37.257.365 1.201.365 1.201s.72 4.297 1.825 6.014c1.105 1.717 1.284 2.792 1.47 2.92.185.129 1.484.084 1.803.034.318-.05 4.941-1.713 4.941-1.713l-1.44-3.712-2.871 1.39s-2.084-1.722-2.399-2.617c-.314-.894-1.464-3.865-1.464-3.865l.59-1.353.056-.638.035-1.737-.051-.306.03-.793-.316.051-.65-2.89S3.12.67 2.986.85l-.132.179-.131-.768s-.637.099-.558.56z" id="Q"/><path d="M2.165.822l.05.305-.21-.28s-.504-.08-.454.227c.053.308-.167 1.915-.167 1.915l.097 1.559-.082.487-.442-1.664S.777 2.297.459 2.346c-.317.05-.113 1.279-.113 1.279l.283 1.687.175 2.02.156.92c.05.307-.083.484.286.743.37.257.365 1.201.365 1.201s.72 4.297 1.825 6.014c1.105 1.717 1.284 2.792 1.47 2.92.185.129 1.484.084 1.803.034.318-.05 4.941-1.713 4.941-1.713l-1.44-3.712-2.871 1.39s-2.084-1.722-2.399-2.617c-.314-.894-1.464-3.865-1.464-3.865l.59-1.353.056-.638.035-1.737-.051-.306.03-.793-.316.051-.65-2.89S3.12.67 2.986.85l-.132.179-.131-.768s-.637.099-.558.56z" id="S"/><path d="M.172 6.012l.129 4.043 8.094 9.355s8.107-3.734 13.555-8.485L12.65.176S7.52 4.085.172 6.012z" id="U"/><path id="W" d="M.373 3.891l2.581-1.954L.22.096z"/></defs><g fill="none" fill-rule="evenodd"><path d="M50.945 122.952c-19.519-2.8-33.237-20.812-42.54-47.015C-6.342 34.4 1.044 11.143 17.484 4.741 36.505-2.667 62.362 7.311 81.7 28.694c8.53 9.433 15.792 21.085 20.64 34.444 4.36 12.02 3.626 23.085-.64 32.38-3.86 8.414-10.613 15.378-19.095 20.291" stroke="#1F41C1" stroke-width=".7"/><path d="M118.388 117.23C104 103.707 103.06 81.06 110.423 54.243c11.67-42.511 31.018-57.312 48.146-53.097 19.817 4.877 35.292 27.927 38.906 56.57 1.595 12.635.88 26.358-2.787 40.09-3.3 12.356-10.23 20.997-19.038 26.157-7.973 4.67-17.486 6.49-27.244 5.634" stroke="#1F41C1" stroke-width=".7"/><path fill="#FFF" d="M87.312 49.494h33.767v51.163H87.312z"/><path fill="#1F41C1" d="M55.773 152.843l.841-.136v-2.814l-1.023-.12z"/><path fill="#1F41C1" d="M55.59 147.726v6.14l.828-.233.196-4.937m14.326 1.316v2.83l1.495-.314.551-2.755"/><g transform="translate(49.451 152.843)"><mask id="b" fill="#fff"><use xlink:href="#a"/></mask><path fill="#FFF" mask="url(#b)" d="M-3.281 9.645h14.36V-3.298h-14.36z"/></g><path d="M56.962 153.866l.405 3.619h.27v1.497h-7.162l.27-1.747s1.352 0 1.756-.374c.406-.375 2.839-2.995 2.839-2.995h1.622z" stroke="#1F41C1" stroke-width=".976"/><g transform="translate(71.963 150.796)"><mask id="d" fill="#fff"><use xlink:href="#c"/></mask><path fill="#FFF" mask="url(#d)" d="M-3.166 11.346h14.36V-3.02h-14.36z"/></g><path stroke="#1F41C1" stroke-width=".976" d="M71.395 151.563l-.135 5.507h-.27v1.376h7.027l-1.082-2.065-.676.137-3.512-5.093"/><path d="M49.994 61.96a3.493 3.493 0 01-3.494 3.49 3.492 3.492 0 110-6.982 3.492 3.492 0 013.494 3.491zm51.444 21.863l-2.526 2.525a2.52 2.52 0 01-1.29.689l-2.317.463s-6.133 5.515-7.36 6.128c-1.226.613-3.679 2.45-3.679 2.45l-.747.375a.694.694 0 01-.832-.164l-3.94-4.5" stroke="#1F41C1" stroke-width=".976" stroke-linecap="round" stroke-linejoin="round"/><path d="M68.934 78.921s1.685.058 2.682-.277c.998-.336-1.455 1.503-3.295 1.503-.584 0-1.01-.216-1.321-.51-.418-.396-.003-1.074.55-.909.38.113.841.193 1.384.193m10.809 9.813s1.986 6.19 2.99 7.651c.893 1.3-4.293-4.289-4.293-4.902 0 0-.164-1.112 0-1.838.13-.576.456-.779 1.303-.91m17.895-5.418s-1.413 1.425-.186 1.425c1.226 0 3.68-1.225 3.68-1.225l-4.957 3.111.55-1.855m-37.913 2.793s1.842 2.079 1.842 3.304c0 1.226-1.84 2.452-1.226 3.065.614.612 1.37 2.35 1.37 2.35s-1.203-2.109-.366-2.536c.836-.427 1.57-2.437 1.57-2.437l-.121-1.667" fill="#1F41C1"/><path stroke="#1F41C1" stroke-width=".976" stroke-linecap="round" stroke-linejoin="round" d="M46.5 54.977v1.746m0 10.909v1.746m7.207-7.201H51.96m-10.918 0h-1.747m11.245-4.036l-.98.979m-6.12 6.115l-.98.979m8.08 0l-.98-.979m-6.12-6.115l-.98-.979"/><g transform="translate(61.73 90.424)"><mask id="f" fill="#fff"><use xlink:href="#e"/></mask><path fill="#FFF" mask="url(#f)" d="M-2.806 5.356h11.69v-7.782h-11.69z"/></g><g transform="translate(53.544 101.68)"><mask id="h" fill="#fff"><use xlink:href="#g"/></mask><path fill="#1F41C1" mask="url(#h)" d="M-2.667 51.809H25.58v-54.69H-2.667z"/></g><path stroke="#1F41C1" stroke-width=".976" stroke-linecap="round" stroke-linejoin="round" d="M77.08 100.657v1.828l-.131 21.815-3.253 25.341h-2.342l-.26-29.13-1.302-9.012 1.302-3.135-7.417 20.247-6.767 23.208-2.342-.392 5.986-43.455 1.821-7.315"/><g transform="translate(65.823 72.005)"><mask id="j" fill="#fff"><use xlink:href="#i"/></mask><path fill="#FFF" mask="url(#j)" d="M-2.914 11.672h11.8V-3.094h-11.8z"/></g><path d="M71.963 77.866l-.175 1.208s-.395 1.117-1.58 1.117c-1.184 0-3.726-.633-4.385-1.254 1.006-.493 1.772-1.329 2.14-2.34.466-1.28 1.01-3.098 1.01-4.592" stroke="#1F41C1" stroke-width=".976" stroke-linecap="round" stroke-linejoin="round"/><g transform="translate(66.847 68.936)"><mask id="l" fill="#fff"><use xlink:href="#k"/></mask><path fill="#FFF" mask="url(#l)" d="M-3.111 11.75H9.878V-2.719h-12.99z"/></g><path d="M66.847 69.959l5.806.389c.177.481.282.99.307 1.506.032.66.05 1.599-.041 2.356-.16 1.312-.4 3.281-.723 3.626-.085.091-.78.332-1.047.307-.267-.025-2.49-1.154-2.822-1.704-.332-.55-1.202-2.596-1.446-2.907" stroke="#1F41C1" stroke-width=".976" stroke-linecap="round" stroke-linejoin="round"/><g transform="translate(65.823 66.89)"><mask id="n" fill="#fff"><use xlink:href="#m"/></mask><path fill="#1F41C1" mask="url(#n)" d="M-2.74 8.155h13.839V-2.842h-13.84z"/></g><g transform="translate(66.847 70.982)"><mask id="p" fill="#fff"><use xlink:href="#o"/></mask><path fill="#FFF" mask="url(#p)" d="M-2.23 4.915h5.423v-7.691H-2.23z"/></g><path d="M67.87 72.093s-.598-1.41-.937-1.053c-.339.358.428 1.989.428 1.989" stroke="#1F41C1" stroke-width=".976" stroke-linecap="round" stroke-linejoin="round"/><g transform="translate(55.59 86.33)"><mask id="r" fill="#fff"><use xlink:href="#q"/></mask><path fill="#FFF" mask="url(#r)" d="M-2.746 24.53h15.339V-2.79h-15.34z"/></g><path d="M57.9 87.354l-2.236 7.23c-.127.41-.088.856.109 1.238l4.848 9.401 1.218 2.596 1.623-.787.544.527c.261.253.708.089.73-.27l.064-1.044-1.218-1.574-1.217-.788-2.244-7.978a1.443 1.443 0 01.226-1.245l3.641-4.944" stroke="#1F41C1" stroke-width=".976" stroke-linecap="round" stroke-linejoin="round"/><g transform="translate(56.614 78.145)"><mask id="t" fill="#fff"><use xlink:href="#s"/></mask><path fill="#FFF" mask="url(#t)" d="M-2.627 29.155h30.713V-2.799H-2.627z"/></g><path d="M71.327 79.01l.239.094 3.342.612a4.894 4.894 0 013.225 2.164l3.544 5.483-3.825 2.123c.537 4.073.086 8.41-1.272 12.618 0 0-3.97 3.27-14.106-.22-.607-2.507-.81-6.125-.5-11.145l-4.964-3.098 2.707-5.599a4.909 4.909 0 012.991-2.568l3.23-.98c1.854 1.118 3.656 1.37 5.39.516z" stroke="#1F41C1" stroke-width=".976" stroke-linecap="round" stroke-linejoin="round"/><path d="M71.54 77.652s-1.21-1.223-2.419-.612c-1.209.612-2.034.81-2.034.81l1.17-2.715 1.056 1.254" fill="#1F41C1"/><g transform="translate(126.196 74.052)"><mask id="v" fill="#fff"><use xlink:href="#u"/></mask><path fill="#FFF" mask="url(#v)" d="M-2.736 10.982H7.06V-2.97h-9.797z"/></g><path d="M130.289 78.706s-1.407-2.138-1.407-3.145c0-1.006-.256-1.51-.256-1.51l-2.43 4.907s1.415 1.116 1.09 2.257" stroke="#1F41C1" stroke-width=".976" stroke-linecap="round" stroke-linejoin="round"/><g transform="translate(141.544 144.657)"><mask id="x" fill="#fff"><use xlink:href="#w"/></mask><path fill="#1F41C1" mask="url(#x)" d="M-2.75 9.349H7.476V-3.004H-2.75z"/></g><path stroke="#1F41C1" stroke-width=".976" d="M143.707 144.657l2.954 3.774-1.406 1.342-3.71-4.974"/><g transform="translate(115.963 147.726)"><mask id="z" fill="#fff"><use xlink:href="#y"/></mask><path fill="#1F41C1" mask="url(#z)" d="M-2.682 9.187h7.945V-3.166h-7.945z"/></g><path stroke="#1F41C1" stroke-width=".976" d="M119.033 148.228l-1.235 3.96-.17.655-1.665-.117 1.152-5"/><g transform="translate(127.219 108.843)"><mask id="B" fill="#fff"><use xlink:href="#A"/></mask><path fill="#FFF" mask="url(#B)" d="M-2.805 40.64H21.23V-3.03H-2.805z"/></g><path stroke="#1F41C1" stroke-width=".976" d="M127.219 119.112l3.865 9.775 11.114 17.816 2.416-1.361-7.369-19.425-3.624-17.074"/><g transform="translate(115.963 101.68)"><mask id="D" fill="#fff"><use xlink:href="#C"/></mask><path fill="#FFF" mask="url(#D)" d="M-2.743 50.797h25.016V-2.906H-2.743z"/></g><path stroke="#1F41C1" stroke-width=".976" d="M134.051 101.68l1.354 4.916-7.137 17.083-9.475 25.07-2.83-.491 3.077-25.563 5.66-20.77z"/><g transform="translate(142.568 147.726)"><mask id="F" fill="#fff"><use xlink:href="#E"/></mask><path fill="#FFF" mask="url(#F)" d="M-2.846 12.199h13.028V-2.922H-2.846z"/></g><path stroke="#1F41C1" stroke-width=".976" d="M145.418 148.75l3.29 1.906-3.29 6.28h-2.85v-.785l1.206-1.346.609-5.21"/><g transform="translate(122.103 78.145)"><mask id="H" fill="#fff"><use xlink:href="#G"/></mask><path fill="#1F41C1" mask="url(#H)" d="M-2.579 26.977h17.418V-2.73H-2.579z"/></g><g transform="translate(122.103 70.982)"><mask id="J" fill="#fff"><use xlink:href="#I"/></mask><path fill="#FFF" mask="url(#J)" d="M-2.82 11.141H8.778v-14.09H-2.82z"/></g><path d="M129.261 73.487s.261 4.94-3.263 5.681c0 0-2.611-1.605-2.872-7.163" stroke="#1F41C1" stroke-width=".976" stroke-linecap="round" stroke-linejoin="round"/><g transform="translate(131.312 70.982)"><mask id="L" fill="#fff"><use xlink:href="#K"/></mask><path fill="#5E80FF" mask="url(#L)" d="M-2.01 2.897h5.011v-5.012h-5.01z"/></g><g transform="translate(122.103 66.89)"><mask id="N" fill="#fff"><use xlink:href="#M"/></mask><path fill="#1F41C1" mask="url(#N)" d="M-2.865 14.883h15.987V-2.809H-2.865z"/></g><g transform="translate(107.777 151.82)"><mask id="P" fill="#fff"><use xlink:href="#O"/></mask><path fill="#FFF" mask="url(#P)" d="M-2.833 9.186h15.271V-3.167h-15.27z"/></g><path d="M118.38 152.843l.39 3.613.263.007v1.496H108.8l.26-1.745s1.297 0 1.686-.373c.389-.375 5.536-2.991 5.536-2.991l2.098-.007z" stroke="#1F41C1" stroke-width=".976"/><g transform="translate(113.916 76.098)"><mask id="R" fill="#fff"><use xlink:href="#Q"/></mask><path fill="#FFF" mask="url(#R)" d="M-2.877 22.25h17.685V-2.775H-2.877z"/></g><path d="M101.246 53.597l-2.222-.01c-3.066-.014-5.56 2.31-5.573 5.193-.012 2.882 2.463 5.23 5.529 5.244l12.794.06c2.163.01 4.286.608 6.15 1.734l1.776 1.071.005-1.147c.004-.831.544-1.586 1.335-1.768 2.399-.55 4.121-2.598 4.132-5.047.012-2.883-2.463-5.23-5.53-5.245l-18.396-.085z" stroke="#1F41C1" stroke-width=".976" stroke-linecap="round" stroke-linejoin="round"/><g transform="translate(113.916 76.098)"><mask id="T" fill="#fff"><use xlink:href="#S"/></mask><path fill="#FFF" mask="url(#T)" d="M-2.877 22.25h17.685V-2.775H-2.877z"/></g><path d="M121.934 91.587c-1.646-1.648-2.835-3.893-3.732-6.52l.57-1.36.054-.643.035-1.747-.05-.308.03-.797-.308.05-.626-2.907s-.05-.31-.179-.13l-.129.18-.124-.772s-.615.1-.54.562c.074.464.05.309.05.309l-.204-.283s-.487-.08-.437.229c.05.308-.163 1.926-.163 1.926l.094 1.569-.079.487-.427-1.672s-.174-1.08-.481-1.03c-.308.05-.11 1.284-.11 1.284l.443 3.728s.07 1.415.427 1.674c.358.259 1.049 5.53 2.116 7.258 1.066 1.727 1.24 2.808 1.42 2.937.178.129 1.434.084 1.74.034.308-.05 5.159-.914 5.159-.914l-1.776-4.543-2.773 1.4zM151.88 69.19c-.543.488-1.064.861-1.46 1.117-.292.19-.198.624.138.714a5.901 5.901 0 006.928-3.339 5.915 5.915 0 00-2.235-7.357c-.295-.188-.682.053-.624.4.2 1.17.388 3.4-.52 5.475-.096.22-.203.433-.316.637a8.422 8.422 0 01-.81 1.193m-7.788-7.444a.738.738 0 101.476.002.738.738 0 00-1.476-.002zm20.656 11.082c0 .815.66 1.477 1.475 1.477a1.477 1.477 0 000-2.954c-.815 0-1.475.661-1.475 1.477z" stroke="#1F41C1" stroke-width=".976" stroke-linecap="round" stroke-linejoin="round"/><path d="M118.833 82.703s-.892 2.253-1.502 2.253 1.802 2.592 1.802 2.592l-.886-2.287s.868-1.757.586-2.558m6.734 8.668s-3.089 4.112-4.594 4.195l8.255-1.14m-.61-16.496l-1.22.61-1.028.566s1.028-1.176 2.248-.565c1.22.61.595 1.082.595 1.082l1.235-.471-1.117-2.05" fill="#1F41C1"/><path stroke="#1F41C1" stroke-width=".976" stroke-linecap="round" stroke-linejoin="round" d="M134.464 89.631l2.39 7.545v1.221l-1.83 4.888"/><path d="M135.756 93.71s-.998-1.702-1.475-1.256c-.477.445-.477-2-.477-2l-.305-2.748m-32.375 1.924l-8.58-10.494 12.693-12.614 8.803 10.257c-5.09 4.295-10.392 8.592-12.916 12.85" fill="#1F41C1"/><g transform="translate(92.428 65.866)"><mask id="V" fill="#fff"><use xlink:href="#U"/></mask><path fill="#FFF" mask="url(#V)" d="M9.355-5.81l15.889 16.09-14.335 14.325L-4.98 8.514z"/></g><path d="M104.74 65.866s-5.061 3.95-12.312 5.899l.128 4.087 7.987 9.456s7.997-3.776 13.373-8.577l-9.177-10.865z" stroke="#1F41C1" stroke-width=".976" stroke-linecap="round" stroke-linejoin="round"/><g transform="translate(91.405 72.005)"><mask id="X" fill="#fff"><use xlink:href="#W"/></mask><path fill="#1F41C1" mask="url(#X)" d="M.547-2.703l5.28 4.655-5.29 4.602-5.28-4.655z"/></g><path d="M105.147 75.89l-2.317-2.76c1.784-.546 3.204-1.977 3.204-1.977l2.316 2.761c-.924.707-1.85 1.451-3.203 1.977z" stroke="#1F41C1" stroke-width=".976" stroke-linecap="round" stroke-linejoin="round"/><path stroke="#1F41C1" stroke-width=".976" stroke-linecap="round" stroke-linejoin="round" d="M105.508 72.875l-.474.88 4.16.259m-9.738-1.924l5.662 6.714m-2.795-1.207l1.47 1.743m-5.662-6.714l2.837 3.365"/><path d="M81.587 87.463s1.833 2.469 2.444 3.703c0 0 6.648-3.697 8.555-4.32 1.907-.625 2.444-2.47 3.055-3.088.612-.617 1.222-1.234 1.833-1.234.612 0 0 .617-.61 1.234-.213.215-.278.43-.272.618" fill="#FFF"/><path d="M81.587 87.463s1.833 2.469 2.444 3.703c0 0 6.648-3.697 8.555-4.32 1.907-.625 2.444-2.47 3.055-3.088.612-.617 1.222-1.234 1.833-1.234.612 0 0 .617-.61 1.234-.213.215-.278.43-.272.618" stroke="#1F41C1" stroke-width=".976" stroke-linecap="round" stroke-linejoin="round"/></g></svg>