<svg width="169" height="173" xmlns="http://www.w3.org/2000/svg"><g fill="none" fill-rule="evenodd"><path d="M75.06 149.386c-26.458-.252-42.86-17.198-52.073-43.31C8.383 64.683 21.715 39.364 45.196 30.42c39.15-14.913 92.891 5.965 108.703 49.407 8.298 22.798-8.367 44.5-34.33 57.755" stroke="#1F41C1" stroke-width=".7"/><path stroke="#1F41C1" stroke-width=".9" stroke-linecap="round" stroke-linejoin="round" d="M84.91 118.811l2.328 16.167.675 12.97 1.307 16.056 2.473.607 1.755-22.247.56-12.975 1.186-11.126m1.578.327l2.183 12.012 9.09 29.921 2.46-2.482-2.242-18.214-3.756-11.103 1.18-12.36"/><path fill="#1F41C1" d="M108.1 159.193l-1.018 8.84-2.082 2.292.007 1.331 4.944-.022 5.658-10.675-5.72-3.208z"/><path stroke="#1F41C1" stroke-width=".9" stroke-linecap="round" stroke-linejoin="round" d="M109.89 157.75l5.72 3.21-5.658 10.674-4.946.022-.006-1.33 2.082-2.292 1.018-8.84"/><path fill="#1F41C1" d="M85.081 167.56l-5.886 2.31-.758.573.006 1.332 15.595-.07-.194-.76-1.55-6.65-2.528-1.315z"/><path stroke="#1F41C1" stroke-width=".9" stroke-linecap="round" stroke-linejoin="round" d="M93.845 170.945l.193.76-15.595.07-.006-1.332.759-.574 5.886-2.309 4.683-4.58 2.529 1.315z"/><path d="M69.398 72.65c1.411 3.737 5.221 4.352 5.57 4.903 1.675 2.648 5.09 5.565 5.09 5.565l1.373-3.712" fill="#FFF"/><path d="M69.398 72.65c1.411 3.737 5.221 4.352 5.57 4.903 1.675 2.648 5.09 5.565 5.09 5.565l1.373-3.712" stroke="#1F41C1" stroke-width=".9" stroke-linecap="round" stroke-linejoin="round"/><path d="M81.43 79.406l-4.337-3.07-.02-4.324s-.002-.618-.617.003c-.615.62-1.227 1.858-1.227 1.858s-.596 1.104-2.949-.462" fill="#FFF"/><path d="M81.43 79.406l-4.337-3.07-.02-4.324s-.002-.618-.617.003c-.615.62-1.227 1.858-1.227 1.858s-.596 1.104-2.949-.462" stroke="#1F41C1" stroke-width=".9" stroke-linecap="round" stroke-linejoin="round"/><path d="M86.392 83.708l13.59-.06.623 1.232 3.12 6.782 4.439 25.926s-13.583 1.913-17.289 1.93c-3.707.017-8.036-1.2-8.036-1.2l-.741-27.796 1.833-4.332 2.461-2.482z" fill="#1F41C1"/><path d="M86.392 83.708l13.59-.06.623 1.232 3.12 6.782 4.439 25.926s-13.583 1.913-17.289 1.93c-3.707.017-8.036-1.2-8.036-1.2l-.741-27.796 1.833-4.332 2.461-2.482z" stroke="#1F41C1" stroke-width=".9" stroke-linecap="round" stroke-linejoin="round"/><path fill="#FFF" d="M81.84 78.304l.638.513-.02-4.451 1.424-13.361 2.962-1.497 12.419 1.285 4.351 6.159-3.047 9.28-.598 4.327.013 3.088-13.59.06-3.078 2.485-3.715-1.836z"/><path stroke="#1F41C1" stroke-width=".9" stroke-linecap="round" stroke-linejoin="round" d="M81.84 78.304l.638.513-.02-4.451 1.424-13.361 2.962-1.497 12.419 1.285 4.351 6.159-3.047 9.28-.598 4.327.013 3.088-13.59.06-3.078 2.485-3.715-1.836z"/><path d="M86.216 44.172c-.617.003-2.446 5.57-2.433 8.66.015 3.088.015 3.088 1.862 1.844" fill="#FFF"/><path d="M86.216 44.172c-.617.003-2.446 5.57-2.433 8.66.015 3.088.015 3.088 1.862 1.844" stroke="#1F41C1" stroke-width=".9" stroke-linecap="round" stroke-linejoin="round"/><path d="M86.208 42.319s-1.195 9.272-1.184 11.742c.012 2.471.643 5.558.643 5.558s3.706-.017 4.958 3.684c1.252 3.701.657 8.646 3.745 8.632 3.09-.013 9.27.576 10.5-.664 1.23-1.241 1.218-3.713-.646-6.175-1.864-2.463-4.97-6.156-4.991-11.098-.022-4.942-.678-13.588-5.002-13.568-4.325.02-6.798-.588-8.023 1.889" fill="#1F41C1"/><path d="M86.208 42.319s-1.195 9.272-1.184 11.742c.012 2.471.643 5.558.643 5.558s3.706-.017 4.958 3.684c1.252 3.701.657 8.646 3.745 8.632 3.09-.013 9.27.576 10.5-.664 1.23-1.241 1.218-3.713-.646-6.175-1.864-2.463-4.97-6.156-4.991-11.098-.022-4.942-.678-13.588-5.002-13.568-4.325.02-6.798-.588-8.023 1.889z" stroke="#1F41C1" stroke-width=".9" stroke-linecap="round" stroke-linejoin="round"/><path fill="#FFF" d="M61.1 42.012v4.394h-4.476V41.93h1.615"/><path stroke="#1F41C1" stroke-width=".9" stroke-linecap="round" stroke-linejoin="round" d="M61.1 42.012v4.394h-4.476V41.93h1.615"/><path fill="#FFF" d="M62.561 43.258h11.825"/><path stroke="#1F41C1" stroke-width=".9" stroke-linecap="round" stroke-linejoin="round" d="M62.561 43.258h11.825"/><path fill="#FFF" d="M62.561 45.078h5.266"/><path stroke="#1F41C1" stroke-width=".9" stroke-linecap="round" stroke-linejoin="round" d="M62.561 45.078h5.266"/><path fill="#FFF" d="M58.012 43.463l.91 1.819 1.819-4.549"/><path stroke="#1F41C1" stroke-width=".9" stroke-linecap="round" stroke-linejoin="round" d="M58.012 43.463l.91 1.819 1.819-4.549"/><path fill="#FFF" d="M61.1 52.018v2.575h-4.476v-4.476h3.434"/><path stroke="#1F41C1" stroke-width=".9" stroke-linecap="round" stroke-linejoin="round" d="M61.1 52.018v2.575h-4.476v-4.476h3.434"/><path fill="#FFF" d="M62.561 51.445h6.367"/><path stroke="#1F41C1" stroke-width=".9" stroke-linecap="round" stroke-linejoin="round" d="M62.561 51.445h6.367"/><path fill="#FFF" d="M67.109 53.265h6.176"/><path stroke="#1F41C1" stroke-width=".9" stroke-linecap="round" stroke-linejoin="round" d="M67.109 53.265h6.176"/><path fill="#FFF" d="M62.561 53.265h3.561"/><path stroke="#1F41C1" stroke-width=".9" stroke-linecap="round" stroke-linejoin="round" d="M62.561 53.265h3.561"/><path fill="#FFF" d="M58.012 51.65l.91 1.819 2.729-3.639"/><path stroke="#1F41C1" stroke-width=".9" stroke-linecap="round" stroke-linejoin="round" d="M58.012 51.65l.91 1.819 2.729-3.639"/><path fill="#FFF" d="M61.1 60.206v2.574h-4.476v-4.476h3.434"/><path stroke="#1F41C1" stroke-width=".9" stroke-linecap="round" stroke-linejoin="round" d="M61.1 60.206v2.574h-4.476v-4.476h3.434"/><path fill="#FFF" d="M68.539 59.632h4.028"/><path stroke="#1F41C1" stroke-width=".9" stroke-linecap="round" stroke-linejoin="round" d="M68.539 59.632h4.028"/><path fill="#FFF" d="M62.561 59.632h5.1"/><path stroke="#1F41C1" stroke-width=".9" stroke-linecap="round" stroke-linejoin="round" d="M62.561 59.632h5.1"/><path fill="#FFF" d="M62.561 61.451h8.905"/><path stroke="#1F41C1" stroke-width=".9" stroke-linecap="round" stroke-linejoin="round" d="M62.561 61.451h8.905"/><path fill="#FFF" d="M58.012 59.837l.91 1.819 2.729-3.639"/><path stroke="#1F41C1" stroke-width=".9" stroke-linecap="round" stroke-linejoin="round" d="M58.012 59.837l.91 1.819 2.729-3.639"/><path d="M75.842 72.458l-1.15 1.76s-13.5-4.268-14.1-5.468c-.43-.861 1.92-2.031 3.282-2.624a2.092 2.092 0 011.772.051l11.146 5.573" fill="#1F41C1"/><path d="M75.842 72.458l-1.15 1.76s-13.5-4.268-14.1-5.468c-.43-.861 1.92-2.031 3.282-2.624a2.092 2.092 0 011.772.051l11.146 5.573" stroke="#1F41C1" stroke-width=".9" stroke-linecap="round" stroke-linejoin="round"/><path d="M62.256 35.898a8.845 8.845 0 110-17.69 8.845 8.845 0 010 17.69" fill="#FFF"/><path d="M62.256 35.898h0a8.845 8.845 0 110-17.69 8.845 8.845 0 010 17.69z" stroke="#1F41C1" stroke-width=".9" stroke-linecap="round" stroke-linejoin="round"/><path fill="#1F41C1" d="M61.238 30.294l-2.88-2.88 1.31-1.31 2.88 2.88z"/><path stroke="#1F41C1" stroke-width=".9" stroke-linecap="round" stroke-linejoin="round" d="M61.238 30.294l-2.88-2.88 1.31-1.31 2.88 2.88z"/><path fill="#1F41C1" d="M59.941 28.983l5.004-5.003 1.31 1.31-5.003 5.004z"/><path stroke="#1F41C1" stroke-width=".9" stroke-linecap="round" stroke-linejoin="round" d="M59.941 28.983l5.004-5.003 1.31 1.31-5.003 5.004z"/><path d="M47.457 22.927c-2.276-.917-4.752-.82-6.943.289-.502.254-.642 1.035-.333 1.479.358.514.943.604 1.48.332.058-.03.117-.06.177-.088-.102.048-.096.046.019-.005.092-.036.184-.076.277-.11.216-.082.437-.152.66-.21.129-.034.258-.06.387-.091.252-.06-.127.01.108-.02a8.26 8.26 0 01.74-.07c.232-.01.463-.01.694.004.047.002.393.038.159.009a7.033 7.033 0 011.56.369c.518.21 1.18.124 1.452-.436.229-.475.118-1.228-.437-1.452" fill="#FFF"/><path d="M47.457 22.927c-2.276-.917-4.752-.82-6.943.289-.502.254-.642 1.035-.333 1.479.358.514.943.604 1.48.332.058-.03.117-.06.177-.088-.102.048-.096.046.019-.005.092-.036.184-.076.277-.11.216-.082.437-.152.66-.21.129-.034.258-.06.387-.091.252-.06-.127.01.108-.02a8.26 8.26 0 01.74-.07c.232-.01.463-.01.694.004.047.002.393.038.159.009a7.033 7.033 0 011.56.369c.518.21 1.18.124 1.452-.436.229-.475.118-1.228-.437-1.452z" stroke="#1F41C1" stroke-width=".9" stroke-linecap="round" stroke-linejoin="round"/><path d="M48.075 18.985a18.146 18.146 0 01-2.88-1.673c.127.092-.14-.106-.137-.102l-.177-.135a18.055 18.055 0 01-2.789-2.665 19.71 19.71 0 01-.66-.862c-.329-.453-.983-.676-1.479-.331-.452.314-.684.993-.332 1.479 1.915 2.644 4.473 4.798 7.438 6.176.508.237 1.19.106 1.452-.436.24-.498.107-1.199-.436-1.452" fill="#FFF"/><path d="M48.075 18.985a18.146 18.146 0 01-2.88-1.673c.127.092-.14-.106-.137-.102l-.177-.135a18.055 18.055 0 01-2.789-2.665 19.71 19.71 0 01-.66-.862c-.329-.453-.983-.676-1.479-.331-.452.314-.684.993-.332 1.479 1.915 2.644 4.473 4.798 7.438 6.176.508.237 1.19.106 1.452-.436.24-.498.107-1.199-.436-1.452z" stroke="#1F41C1" stroke-width=".9" stroke-linecap="round" stroke-linejoin="round"/><path d="M51.974 16.263a6.964 6.964 0 01-.65-.648c-.058-.065-.096-.181.01.014-.023-.04-.064-.078-.092-.114a7.082 7.082 0 01-.676-1.05c-.044-.084-.08-.182-.131-.263.033.052.08.181.025.052l-.057-.135a7.065 7.065 0 01-.371-1.192l-.03-.143c-.04-.201.023.167.005.03-.013-.11-.03-.218-.042-.328-.06-.556-.502-1.082-1.11-1.033-.543.044-1.096.513-1.032 1.109.22 2.02 1.156 3.922 2.69 5.27.421.37 1.131.394 1.515-.055.368-.43.396-1.119-.054-1.514" fill="#FFF"/><path d="M51.974 16.263a6.964 6.964 0 01-.65-.648c-.058-.065-.096-.181.01.014-.023-.04-.064-.078-.092-.114a7.082 7.082 0 01-.676-1.05c-.044-.084-.08-.182-.131-.263.033.052.08.181.025.052l-.057-.135a7.065 7.065 0 01-.371-1.192l-.03-.143c-.04-.201.023.167.005.03-.013-.11-.03-.218-.042-.328-.06-.556-.502-1.082-1.11-1.033-.543.044-1.096.513-1.032 1.109.22 2.02 1.156 3.922 2.69 5.27.421.37 1.131.394 1.515-.055.368-.43.396-1.119-.054-1.514z" stroke="#1F41C1" stroke-width=".9" stroke-linecap="round" stroke-linejoin="round"/></g></svg>