<svg width="46" height="60" viewBox="0 0 46 60" fill="none" xmlns="http://www.w3.org/2000/svg">
<path d="M11.75 0.75C8.76631 0.75 5.90483 1.93526 3.79505 4.04505C1.68526 6.15483 0.5 9.01631 0.5 12V48C0.5 50.9837 1.68526 53.8452 3.79505 55.955C5.90483 58.0647 8.76631 59.25 11.75 59.25H34.25C37.2337 59.25 40.0952 58.0647 42.205 55.955C44.3147 53.8452 45.5 50.9837 45.5 48V12C45.5 9.01631 44.3147 6.15483 42.205 4.04505C40.0952 1.93526 37.2337 0.75 34.25 0.75H11.75ZM26.375 54.75H19.625C19.0283 54.75 18.456 54.5129 18.034 54.091C17.6121 53.669 17.375 53.0967 17.375 52.5C17.375 51.9033 17.6121 51.331 18.034 50.909C18.456 50.4871 19.0283 50.25 19.625 50.25H26.375C26.9717 50.25 27.544 50.4871 27.966 50.909C28.3879 51.331 28.625 51.9033 28.625 52.5C28.625 53.0967 28.3879 53.669 27.966 54.091C27.544 54.5129 26.9717 54.75 26.375 54.75ZM38.75 12V43.5C38.75 44.0967 38.5129 44.669 38.091 45.091C37.669 45.5129 37.0967 45.75 36.5 45.75H9.5C8.90326 45.75 8.33097 45.5129 7.90901 45.091C7.48705 44.669 7.25 44.0967 7.25 43.5V12C7.25 11.4033 7.48705 10.831 7.90901 10.409C8.33097 9.98705 8.90326 9.75 9.5 9.75H36.5C37.0967 9.75 37.669 9.98705 38.091 10.409C38.5129 10.831 38.75 11.4033 38.75 12Z" fill="#0F0F19"/>
<path d="M32.5625 14.25H13.4375C12.1949 14.25 11.1875 15.2574 11.1875 16.5V39C11.1875 40.2426 12.1949 41.25 13.4375 41.25H32.5625C33.8051 41.25 34.8125 40.2426 34.8125 39V16.5C34.8125 15.2574 33.8051 14.25 32.5625 14.25Z" fill="#0F0F19"/>
</svg>
