<svg width="56" height="53" viewBox="0 0 56 53" fill="none" xmlns="http://www.w3.org/2000/svg">
<path d="M49.9238 0.67041H6.5221C3.17149 0.67041 0.445862 3.3944 0.445862 6.743V46.6312C0.445862 49.9798 3.17149 52.7038 6.5221 52.7038H49.9238C53.2744 52.7038 56 49.9798 56 46.6312V6.743C56 3.3944 53.2744 0.67041 49.9238 0.67041ZM13.3622 9.24143C14.3518 8.25247 16.0878 8.26982 17.0427 9.24143C17.5288 9.72724 17.8065 10.3865 17.8065 11.0806C17.8065 11.7572 17.5288 12.4339 17.0427 12.9197C16.5566 13.4055 15.8969 13.6831 15.2024 13.6831C14.5254 13.6831 13.8483 13.4055 13.3622 12.9197C12.8761 12.4165 12.5983 11.7572 12.5983 11.0806C12.5983 10.3865 12.8761 9.72724 13.3622 9.24143ZM4.78603 11.0806C4.78603 10.3865 5.0638 9.72724 5.5499 9.24143C6.5221 8.25247 8.25816 8.25247 9.23036 9.22408C9.71646 9.72724 9.99423 10.3865 9.99423 11.0806C9.99423 11.7572 9.71646 12.4165 9.23036 12.9023C8.74426 13.4055 8.08456 13.6831 7.39013 13.6831C6.71306 13.6831 6.036 13.4055 5.5499 12.9197C5.0638 12.4165 4.78603 11.7572 4.78603 11.0806ZM50.7918 46.6312C50.7918 47.117 50.4099 47.4987 49.9238 47.4987H6.5221C6.05336 47.4987 5.65406 47.117 5.65406 46.6312V21.4387H50.7918V46.6312ZM48.1877 13.6831H34.2992C32.8582 13.6831 31.6951 12.5033 31.6951 11.0806C31.6951 9.64049 32.8582 8.47802 34.2992 8.47802H48.1877C49.6286 8.47802 50.7918 9.64049 50.7918 11.0806C50.7918 12.5033 49.6286 13.6831 48.1877 13.6831Z" fill="#0F0F19"/>
<path d="M45.726 29.2895H10.7252C9.28599 29.2895 8.12109 28.1236 8.12109 26.687C8.12109 25.2504 9.28599 24.0845 10.7252 24.0845H45.726C47.1652 24.0845 48.3301 25.2504 48.3301 26.687C48.3301 28.1236 47.1635 29.2895 45.726 29.2895Z" fill="#0F0F19"/>
<path d="M45.7259 37.0977H27.3566C25.9174 37.0977 24.7525 35.9317 24.7525 34.4951C24.7525 33.0585 25.9174 31.8926 27.3566 31.8926H45.7259C47.1651 31.8926 48.33 33.0585 48.33 34.4951C48.33 35.9317 47.1634 37.0977 45.7259 37.0977Z" fill="#0F0F19"/>
<path d="M19.5444 37.0977H10.7252C9.28599 37.0977 8.12109 35.9317 8.12109 34.4951C8.12109 33.0585 9.28599 31.8926 10.7252 31.8926H19.5444C20.9836 31.8926 22.1485 33.0585 22.1485 34.4951C22.1485 35.9317 20.9836 37.0977 19.5444 37.0977Z" fill="#0F0F19"/>
<path d="M29.0928 44.9062H10.7252C9.28599 44.9062 8.12109 43.7403 8.12109 42.3037C8.12109 40.8671 9.28599 39.7012 10.7252 39.7012H29.0928C30.532 39.7012 31.6969 40.8671 31.6969 42.3037C31.6969 43.7403 30.532 44.9062 29.0928 44.9062Z" fill="#0F0F19"/>
<path d="M45.7259 44.9062H36.9049C35.4657 44.9062 34.3008 43.7403 34.3008 42.3037C34.3008 40.8671 35.4657 39.7012 36.9049 39.7012H45.7259C47.1651 39.7012 48.33 40.8671 48.33 42.3037C48.33 43.7403 47.1634 44.9062 45.7259 44.9062Z" fill="#0F0F19"/>
</svg>
