<svg xmlns="http://www.w3.org/2000/svg" width="48" height="48" viewBox="0 0 48 48">
    <g fill="none" fill-rule="evenodd">
        <path d="M0 0h48v48H0z"/>
        <circle cx="24" cy="28" r="15" fill="#D6F4FF"/>
        <path fill="#003648" fill-rule="nonzero" d="M40.244 15.088l1.4 2.424-3.917 2.263a15.917 15.917 0 0 1 2.268 7.826L44.4 27.6v2.8h-4.579a15.897 15.897 0 0 1-2.094 5.826l3.917 2.262-1.4 2.424-4.173-2.41A15.963 15.963 0 0 1 24 44c-4.177 0-7.98-1.6-10.83-4.222l1.983-1.982a13.15 13.15 0 0 0 7.447 3.33L22.6 30.35l2.8-2.8.002 13.578C32.032 40.427 37.2 34.817 37.2 28a13.21 13.21 0 0 0-.497-3.6h-8.155l2.801-2.801h4.198a13.238 13.238 0 0 0-1.75-2.446l1.98-1.983c.1.108.197.217.293.327l4.174-2.41zm.303-9.47l1.98 1.98L7 42.98 5.02 41 40.547 5.618zM33.4 4.6v2.8a4.6 4.6 0 0 0-4.6 4.6v.732c.38.12.753.253 1.12.4l-2.201 2.2A13.204 13.204 0 0 0 24 14.8a13.196 13.196 0 0 0-11.547 6.8l8.998-.001L18.65 24.4h-7.353A13.21 13.21 0 0 0 10.8 28c0 1.291.185 2.54.531 3.72l-2.2 2.2a15.887 15.887 0 0 1-.952-3.52H3.6v-2.8h4.405c.07-2.857.89-5.529 2.269-7.826l-3.918-2.262 1.4-2.424 4.173 2.41a16.026 16.026 0 0 1 6.67-4.564L18.6 12a4.6 4.6 0 0 0-4.39-4.595L14 7.4V4.6a7.4 7.4 0 0 1 7.396 7.156L21.4 12v.21a16.113 16.113 0 0 1 4.6-.086V12a7.4 7.4 0 0 1 7.4-7.4z"/>
    </g>
</svg>
