<svg xmlns="http://www.w3.org/2000/svg" xmlns:xlink="http://www.w3.org/1999/xlink" width="48" height="48" viewBox="0 0 48 48">
    <defs>
        <linearGradient id="a" x1="94.355%" x2="6.087%" y1="49.128%" y2="50.713%">
            <stop offset="0%" stop-color="#EEE" stop-opacity="0"/>
            <stop offset="100%" stop-color="#2E2D2D" stop-opacity=".407"/>
        </linearGradient>
        <filter id="b" width="110.4%" height="111.7%" x="-5.2%" y="-4.5%" filterUnits="objectBoundingBox">
            <feOffset dy="1" in="SourceAlpha" result="shadowOffsetOuter1"/>
            <feGaussianBlur in="shadowOffsetOuter1" result="shadowBlurOuter1" stdDeviation="1.5"/>
            <feColorMatrix in="shadowBlurOuter1" result="shadowMatrixOuter1" values="0 0 0 0 0 0 0 0 0 0 0 0 0 0 0 0 0 0 0.06 0"/>
            <feMerge>
                <feMergeNode in="shadowMatrixOuter1"/>
                <feMergeNode in="SourceGraphic"/>
            </feMerge>
        </filter>
        <rect id="d" width="250" height="222" rx="3"/>
        <filter id="c" width="107.2%" height="108.1%" x="-3.6%" y="-2.7%" filterUnits="objectBoundingBox">
            <feOffset dy="3" in="SourceAlpha" result="shadowOffsetOuter1"/>
            <feGaussianBlur in="shadowOffsetOuter1" result="shadowBlurOuter1" stdDeviation="2.5"/>
            <feComposite in="shadowBlurOuter1" in2="SourceAlpha" operator="out" result="shadowBlurOuter1"/>
            <feColorMatrix in="shadowBlurOuter1" values="0 0 0 0 0 0 0 0 0 0 0 0 0 0 0 0 0 0 0.12 0"/>
        </filter>
    </defs>
    <g fill="none" fill-rule="evenodd">
        <path fill="#FFF" d="M-616-799H664v4306H-616z"/>
        <path d="M-616-305H664v635H-616z"/>
        <path fill="url(#a)" d="M149.14 234.729C66.777 234.729.77 232.893.77 223.867c0-4.912 40.638-8.77 82.74-17.69 35.338-7.497 69.048-20.636 106.635-20.636 82.371 0 108.896 5.341 108.896 14.367 0 9.025-67.537 34.82-149.9 34.82z" transform="scale(-1 1) rotate(-2 -3808.273 3751.412)"/>
        <path fill="#325A71" d="M15.433 92.783H-.594L-2.023-24.354h-3.86l-12.193 40.211 5.245 76.926H-31.19l-5.254-81.297 11.847-47.99 45.447-1.407z"/>
        <g>
            <g filter="url(#b)" transform="translate(-101 -32)">
                <use fill="#000" filter="url(#c)" xlink:href="#d"/>
                <rect width="249" height="221" x=".5" y=".5" fill="#FFF" stroke="#DFE4E6" stroke-linejoin="square" rx="3"/>
                <g fill-rule="nonzero">
                    <path fill="#FFF" fill-opacity="0" d="M101 32h48v48h-48z"/>
                    <path fill="#D6F4FF" d="M131.847 46.815a.72.72 0 0 1 .62.9l-1.6 7.535-.16.64a11.094 11.094 0 0 1-4.397 6.257l-2.12 1.36 1.12 2.258a37.501 37.501 0 0 1 1.68 3.858c.315 1.132.47 2.303.46 3.478h-19.151l-.24.007-.24-.007a7.196 7.196 0 0 1 .62-4.218 14.992 14.992 0 0 1 5.557-6.896c1.342.591 2.792.898 4.258.9 2.122-.007 4.2-.61 5.997-1.74a12.394 12.394 0 0 0 5.497-8.216l.16-.74 1-4.697a.8.8 0 0 1 .759-.68h.18zm-13.773-.12a4.398 4.398 0 0 1 4.393 4.184l.005.213a4.398 4.398 0 1 1-4.398-4.397z"/>
                    <path fill="#003648" d="M138.963 36h-16.211a5.997 5.997 0 0 0-5.898 5.997v1.999a7.176 7.176 0 0 1 1.2-.12h.32-.32a7.196 7.196 0 0 0 0 14.393 7.116 7.116 0 0 0 3.198-.78l.4-.2c.243-.036.484-.09.72-.16h-.38a7.176 7.176 0 0 0-2.359-13.033v-2.099a3.098 3.098 0 0 1 3.099-3.098h16.211a3.098 3.098 0 0 1 3.099 3.098v12.214a3.098 3.098 0 0 1-3.099 3.098h-5.717c0-.26.18-.5.22-.78l.14-.679 1.6-7.536a3.498 3.498 0 0 0-2.72-4.318 3.998 3.998 0 0 0-.799 0 3.578 3.578 0 0 0-3.498 2.899l-1 4.697-.16.74a9.655 9.655 0 0 1-4.237 6.417 8.476 8.476 0 0 1-4.498 1.319 7.996 7.996 0 0 1-4.398-1.32 18.49 18.49 0 0 0-7.996 9.256c-1.34 3.858-1.6 7.996 2.499 7.996h19.73a2.24 2.24 0 0 0 2.259-2.279 15.992 15.992 0 0 0-.6-4.897 41.3 41.3 0 0 0-1.82-4.218 15.092 15.092 0 0 0 4.099-4.618h6.896a5.997 5.997 0 0 0 5.897-5.897V41.997A5.997 5.997 0 0 0 138.963 36zm-16.491 15.092a4.398 4.398 0 1 1-1.281-3.102 4.398 4.398 0 0 1 1.28 3.122v-.02zm8.236 4.798a11.094 11.094 0 0 1-4.398 6.257l-2.12 1.36 1.12 2.258a37.501 37.501 0 0 1 1.68 3.858c.315 1.132.47 2.303.46 3.478h-19.151c-.16.01-.32.01-.48 0a7.196 7.196 0 0 1 .62-4.218 14.992 14.992 0 0 1 5.557-6.896c1.342.591 2.792.898 4.258.9 2.122-.007 4.2-.61 5.997-1.74a12.394 12.394 0 0 0 5.497-8.216l.16-.74 1-4.697a.8.8 0 0 1 .759-.68h.18a.72.72 0 0 1 .62.9l-1.6 7.536-.16.64z"/>
                </g>
            </g>
        </g>
    </g>
</svg>
