<svg xmlns="http://www.w3.org/2000/svg" width="48" height="48" viewBox="0 0 48 48">
    <g fill="none" fill-rule="evenodd">
        <path d="M0 0h48v48H0z"/>
        <path fill="#D6F4FF" d="M30.023 7.8l2.896.4 7.169 8.885V42.2H9V7.8h21.023zM28.84 27.711l-1.26 2.554-2.819.41 2.04 1.988-.482 2.807 2.521-1.326 2.52 1.326-.48-2.807 2.039-1.988-2.819-.41-1.26-2.554z"/>
        <path fill="#003648" fill-rule="nonzero" d="M29.8 5c1.516 0 3.032.718 4.037 1.814L34 7l6.6 7.4c.753.941 1.329 2.237 1.227 3.553l-.027.247v21.2c0 1.6-.6 3-1.6 4-.941.941-2.414 1.528-3.751 1.594L36.2 45H11.6c-1.4 0-3-.6-4-1.6-.941-.941-1.528-2.237-1.594-3.72L6 39.4V10.6c0-1.6.8-3 1.8-4 .941-.941 2.414-1.528 3.751-1.594L11.8 5h18zm-1.4 2.8H11.8c-.8 0-1.4.2-2 .8-.364.545-.727 1.09-.79 1.787L9 10.6v28.8c0 .8.2 1.4.8 2 .55.55 1.1.764 1.804.796l.196.004h24.6l.176-.005c1.453-.081 2.538-1.166 2.62-2.619l.004-.176v-21h-8c-1.54 0-2.71-1.113-2.795-2.624L28.4 15.6V7.8zm1.28 17.078a1.9 1.9 0 0 1 .864.863l1.15 2.33 2.572.374a1.9 1.9 0 0 1 1.053 3.241l-1.86 1.815.438 2.561a1.9 1.9 0 0 1-2.756 2.003l-2.301-1.21-2.3 1.21a1.9 1.9 0 0 1-2.757-2.003l.439-2.561-1.861-1.815a1.9 1.9 0 0 1 1.053-3.24l2.572-.374 1.15-2.331a1.9 1.9 0 0 1 2.545-.863zm-.84 2.833l-1.26 2.554-2.819.41 2.04 1.988-.482 2.807 2.521-1.326 2.52 1.326-.48-2.807 2.039-1.988-2.819-.41-1.26-2.554zM20 24.8v2.4h-8v-2.4h8zm4-6v2.4H12v-2.4h12zm7-10.6V14c0 .753.531 1.329 1.261 1.394l.139.006h5.2l-5.8-6.6c-.2-.2-.6-.4-.8-.6zm-7 4.6v2.4H12v-2.4h12z"/>
    </g>
</svg>
